<svg xmlns="http://www.w3.org/2000/svg" viewBox="0 0 32 32"><rect width="32" height="32" rx="8" fill="#01696f"/><path d="M9 22V10h2.6v9.7H17V22H9zm10 0V10h4.2c1.1 0 2 .2 2.7.7.7.5 1.1 1.2 1.1 2.2 0 .6-.2 1.1-.5 1.6-.3.4-.8.7-1.4.9.7.1 1.3.4 1.7.9.4.5.6 1.1.6 1.8 0 1.1-.4 1.9-1.2 2.4-.8.6-1.8.9-3.1.9H19zm2.6-7h1.5c.6 0 1-.1 1.3-.4.3-.2.5-.6.5-1 0-.5-.2-.8-.5-1-.3-.2-.8-.3-1.4-.3h-1.4V15zm0 5h1.7c.6 0 1.1-.1 1.4-.4.3-.3.5-.7.5-1.1 0-.5-.2-.9-.5-1.1-.3-.3-.8-.4-1.5-.4h-1.6V20z" fill="#fff"/></svg>
